<?xml version="1.0" encoding="iso-8859-1"?>
<!-- Generator: Adobe Illustrator 18.1.1, SVG Export Plug-In . SVG Version: 6.00 Build 0)  -->
<svg xmlns="http://www.w3.org/2000/svg" xmlns:xlink="http://www.w3.org/1999/xlink" version="1.1" id="Capa_1" x="0px" y="0px" viewBox="0 0 19.502 19.502" style="enable-background:new 0 0 19.502 19.502;" xml:space="preserve" width="512px" height="512px">
<g>
	<path d="M19.502,12.26l-1.319,0.25c0,0-0.379-1.455-1.406-2.732c-1.025-1.283-2.18-1.775-2.18-1.775   l0.461,1.723c0,0-0.754-1.623-1.76-2.215c0,0-0.566-0.961-1.236-1.699c-0.672-0.738-1.783-1.33-1.783-1.33l0.168,1.158L9.812,4.666   V4.477L9.807,4.486l-0.02-0.033v0.062L9.75,4.574L9.715,4.517V4.453L9.692,4.486L9.689,4.477v0.188L9.053,5.637l0.169-1.158   c0,0-1.111,0.592-1.782,1.33C6.771,6.547,6.204,7.508,6.204,7.508C5.198,8.099,4.442,9.723,4.442,9.723L4.903,8   c0,0-1.151,0.492-2.18,1.775c-1.027,1.279-1.403,2.734-1.403,2.734L0,12.26l0.412,2.045H0.093v0.744h19.315v-0.744H19.09   L19.502,12.26z M18.407,13.02c0.33-0.33,0.816-0.531,0.816-0.531l-0.328,1.484h-1.334C17.769,13.729,18.169,13.264,18.407,13.02z    M17.021,12.541c0.447-0.213,0.92-0.32,0.92-0.32l0.09,0.312c0,0-0.434,0.102-0.889,0.32c-0.455,0.225-0.951,0.564-0.951,0.564   l-0.133-0.285C16.058,13.133,16.573,12.752,17.021,12.541z M13.812,11.744c0,0,0.516,0.516,0.953,1.133   c0.313,0.438,0.57,0.879,0.696,1.098h-4.532c0.201-0.201,0.807-0.803,1.196-1.133C12.931,12.147,13.812,11.744,13.812,11.744z    M11.267,9.377c0.418,0.898,0.773,2.17,0.773,2.17s0.027-1.396,0.291-2.562c0.215-0.963,0.559-1.564,0.559-1.564   s-0.297,1.889-0.354,2.643c-0.082,1.068-0.073,2.146-0.073,2.146l-0.399,0.311c0,0-0.504-1.631-1.028-2.85s-1.172-2.32-1.172-2.32   S10.847,8.476,11.267,9.377z M7.171,8.984c0.262,1.166,0.29,2.562,0.29,2.562s0.356-1.271,0.776-2.17   c0.417-0.9,1.403-2.029,1.403-2.029s-0.647,1.104-1.17,2.32c-0.525,1.219-1.03,2.85-1.03,2.85l-0.4-0.311   c0,0,0.007-1.076-0.073-2.146C6.909,9.308,6.613,7.42,6.613,7.42S6.956,8.022,7.171,8.984z M4.736,12.877   c0.439-0.617,0.954-1.133,0.954-1.133s0.881,0.402,1.688,1.098c0.391,0.33,0.996,0.932,1.196,1.133H4.042   C4.167,13.756,4.422,13.313,4.736,12.877z M1.561,12.221c0,0,0.472,0.107,0.92,0.32c0.448,0.211,0.964,0.592,0.964,0.592   l-0.134,0.285c0,0-0.495-0.342-0.952-0.564c-0.454-0.221-0.887-0.322-0.887-0.322L1.561,12.221z M0.277,12.488   c0,0,0.487,0.201,0.818,0.531c0.237,0.243,0.638,0.71,0.844,0.954H0.607L0.277,12.488z" fill="#222222"/>
</g>
<g>
</g>
<g>
</g>
<g>
</g>
<g>
</g>
<g>
</g>
<g>
</g>
<g>
</g>
<g>
</g>
<g>
</g>
<g>
</g>
<g>
</g>
<g>
</g>
<g>
</g>
<g>
</g>
<g>
</g>
</svg>
