<?xml version="1.0" standalone="no"?>
<!DOCTYPE svg PUBLIC "-//W3C//DTD SVG 20010904//EN"
 "http://www.w3.org/TR/2001/REC-SVG-20010904/DTD/svg10.dtd">
<svg version="1.0" xmlns="http://www.w3.org/2000/svg"
 width="700.000000pt" height="700.000000pt" viewBox="0 0 700.000000 700.000000"
 preserveAspectRatio="xMidYMid meet">
<metadata>
Created by potrace 1.11, written by Peter Selinger 2001-2013
</metadata>
<g transform="translate(0.000000,700.000000) scale(0.100000,-0.100000)"
fill="#000000" stroke="none">
<path d="M3299 6596 c-2 -2 -42 -7 -89 -11 -336 -27 -704 -144 -1025 -326
-286 -162 -537 -381 -725 -634 -25 -33 -47 -62 -50 -65 -3 -3 -10 -14 -17 -25
-7 -11 -31 -51 -54 -89 -161 -266 -259 -560 -286 -856 -13 -140 -6 -401 12
-490 3 -14 8 -41 11 -60 19 -130 91 -348 163 -501 38 -80 39 -81 25 -132 -7
-29 -15 -63 -18 -77 -3 -14 -12 -59 -20 -100 -8 -41 -17 -93 -20 -115 -4 -23
-8 -52 -11 -65 -3 -14 -7 -52 -11 -85 -3 -33 -7 -65 -9 -72 -7 -22 -19 -279
-19 -408 1 -155 11 -335 28 -460 4 -27 9 -70 12 -95 3 -25 17 -101 30 -170
132 -668 430 -1251 851 -1663 l100 -97 1322 0 1321 0 58 52 c283 259 549 661
712 1073 48 123 123 353 135 417 2 11 7 28 10 38 7 21 6 17 38 180 14 69 28
148 31 175 11 89 18 139 22 165 22 142 21 608 -1 790 -3 19 -7 58 -10 85 -9
75 -52 319 -74 412 -15 65 -16 86 -7 100 20 30 97 211 121 287 46 140 80 298
92 421 12 140 5 467 -11 494 -2 3 -7 30 -11 60 -21 170 -124 454 -234 646 -33
57 -120 195 -131 205 -3 3 -27 34 -55 70 -27 36 -57 72 -65 81 -110 118 -207
213 -271 264 -93 75 -122 97 -189 142 -289 194 -665 348 -970 398 -19 3 -46 7
-60 10 -14 3 -47 7 -75 11 -27 3 -61 8 -75 11 -32 5 -496 14 -501 9z m471
-340 c85 -12 105 -15 187 -31 102 -19 291 -73 368 -105 203 -84 373 -177 507
-279 86 -64 189 -153 184 -158 -2 -2 -25 1 -52 8 -51 12 -54 12 -144 26 -116
17 -365 7 -480 -18 -25 -6 -54 -12 -64 -15 -58 -11 -213 -70 -290 -109 -173
-88 -338 -225 -445 -367 l-43 -58 -29 44 c-36 53 -144 167 -219 228 -185 153
-437 260 -695 295 -143 19 -404 4 -555 -33 l-25 -6 25 23 c14 13 52 47 85 74
33 28 62 53 65 56 16 20 227 149 325 199 158 79 410 169 525 186 19 3 51 9 70
14 35 9 71 14 185 26 33 4 62 8 64 10 6 5 402 -4 451 -10z m-1194 -880 c297
-64 536 -241 658 -488 74 -152 78 -180 80 -663 2 -454 2 -451 50 -503 49 -55
152 -70 224 -33 42 21 82 66 90 99 2 9 5 206 7 437 3 473 6 505 76 651 122
258 372 442 684 505 73 14 254 19 327 8 101 -16 123 -21 215 -54 144 -51 244
-115 354 -225 153 -152 209 -277 236 -525 17 -152 7 -366 -22 -510 -113 -555
-488 -1027 -1035 -1301 -638 -319 -1410 -319 -2045 2 -542 274 -926 759 -1030
1299 -39 206 -41 453 -4 635 23 110 28 128 60 190 131 258 429 458 724 487 33
3 61 7 63 8 10 8 229 -6 288 -19z"/>
<path d="M2275 4933 c-263 -54 -428 -225 -441 -455 -11 -205 139 -396 366
-465 75 -23 97 -25 190 -21 124 6 208 35 308 105 325 229 229 697 -168 817
-52 16 -212 28 -255 19z m171 -346 c40 -21 60 -46 72 -89 12 -45 7 -73 -24
-114 -61 -82 -183 -85 -258 -6 -39 42 -42 112 -7 161 45 63 145 85 217 48z"/>
<path d="M4510 4924 c-146 -31 -293 -139 -355 -261 -136 -270 25 -577 347
-659 82 -21 229 -15 320 15 110 35 206 108 269 204 70 107 90 220 63 340 -38
162 -174 297 -354 352 -73 22 -209 26 -290 9z m212 -341 c70 -41 95 -125 56
-183 -34 -49 -71 -72 -125 -77 -121 -12 -209 92 -163 193 37 84 149 116 232
67z"/>
</g>
</svg>
