<svg version="1" xmlns="http://www.w3.org/2000/svg" width="933.333" height="933.333" viewBox="0 0 700.000000 700.000000"><path d="M322.5 41c-48.9 5.4-92.7 22.1-129 49.3-47 35.1-77.1 82.8-86.6 137.2-2.9 16.6-3.1 45.3-.6 61.4 3.3 20.4 9.5 40.4 17.7 57.3l3.8 7.8-1.9 7.2c-11.4 44.8-13.3 104.9-4.9 154.6 9.6 56.2 32.8 109.9 65 150.7 3.5 4.4 12 13.7 18.9 20.8l12.4 12.7h265.4l12.4-12.8c15.3-15.7 21.4-23.1 33.2-40.8 15.5-23.3 31.2-56.5 39.6-83.9 11.2-36.6 16.2-71.3 16.2-112 0-32.1-3.1-60.4-9.5-87l-2.4-9.7 3.8-7.7c14.9-30.2 22-68.3 19.1-101.6-4.5-49.6-24.6-92.7-60.4-129.4-38.4-39.3-87.9-63.9-146.2-72.7-11.8-1.8-54.2-2.7-66-1.4zM384 75.5c34.8 5.3 68.9 18.7 95.1 37.4 8.6 6.2 23.1 18.2 22.6 18.7-.1.2-4.3-.5-9.2-1.6-5-1-7.9-1.9-6.5-1.9 1.4 0 4.4.4 6.8.8 2.3.5 4.2.6 4.1.2-.1-1.2-11.5-9.9-22.9-17.5-28-18.7-59.6-30.5-94-35.2-14.1-1.8-43.9-1.8-58.7.1-33 4.3-64.9 15.5-91.5 32.2-7.9 4.9-26.7 19.3-26.8 20.4 0 .4 1.9.3 4.3-.2 2.3-.4 5.3-.8 6.7-.8 1.4 0-1.5.9-6.5 1.9-4.9 1.1-9.1 1.8-9.2 1.6-.5-.5 14-12.5 22.6-18.7C249.7 92.3 289.1 78 327.5 74c12.4-1.2 43.8-.4 56.5 1.5zm-160.2 52.2c-1 .2-2.6.2-3.5 0-1-.3-.2-.5 1.7-.5s2.7.2 1.8.5zm255.5 0c-.7.2-1.9.2-2.5 0-.7-.3-.2-.5 1.2-.5s1.9.2 1.3.5zm-213.6 1.9c-.3.3-1.2.4-1.9.1-.8-.3-.5-.6.6-.6 1.1-.1 1.7.2 1.3.5zm171 0c-.3.3-1.2.4-1.9.1-.8-.3-.5-.6.6-.6 1.1-.1 1.7.2 1.3.5zm-166 1c-.3.3-1.2.4-1.9.1-.8-.3-.5-.6.6-.6 1.1-.1 1.7.2 1.3.5zm161 0c-.3.3-1.2.4-1.9.1-.8-.3-.5-.6.6-.6 1.1-.1 1.7.2 1.3.5zm-157 1c-.3.3-1.2.4-1.9.1-.8-.3-.5-.6.6-.6 1.1-.1 1.7.2 1.3.5zm153 0c-.3.3-1.2.4-1.9.1-.8-.3-.5-.6.6-.6 1.1-.1 1.7.2 1.3.5zM280.5 133c1.3.5 1.4.9.5.9-.8 0-2.4-.4-3.5-.9-1.3-.5-1.4-.9-.5-.9.8 0 2.4.4 3.5.9zm142 0c-1.1.5-2.7.9-3.5.9-.9 0-.8-.4.5-.9 1.1-.5 2.7-.9 3.5-.9.9 0 .8.4-.5.9zM289 136c.8.5 1.1 1 .5 1-.5 0-1.7-.5-2.5-1s-1-1-.5-1c.6 0 1.7.5 2.5 1zm124 0c-.8.5-1.9 1-2.5 1-.5 0-.3-.5.5-1s2-1 2.5-1c.6 0 .3.5-.5 1zm-119 2c.8.5 1.1 1 .5 1-.5 0-1.7-.5-2.5-1s-1-1-.5-1c.6 0 1.7.5 2.5 1zm114 0c-.8.5-1.9 1-2.5 1-.5 0-.3-.5.5-1s2-1 2.5-1c.6 0 .3.5-.5 1zm-160 23c38.4 4.7 68.2 27.4 79.6 60.5l2.8 8 .7 45c.7 50.1.7 50 7.5 55.1 3.4 2.6 4.5 2.9 11.4 2.9s8-.3 11.4-2.9c6.8-5.1 6.8-5.2 7.3-52.6.4-37.4.7-43.4 2.3-50.3 10.1-41.7 55.5-70.8 102.5-65.7 25.6 2.7 46.6 12.7 62.6 29.8 16.5 17.6 22.2 35.1 22.2 68.7 0 8.8-.5 19.6-1.2 24-9.4 60.5-48 110.9-107.4 140-32 15.7-63 22.7-99.7 22.7s-67.7-7-99.7-22.7c-23.5-11.6-40.7-23.9-57.8-41.6-31.8-32.9-47.8-68.9-51-114.4-1.3-17.4 2.9-46.4 8.1-56.7 17-34 58-54.7 98.4-49.8zm107.4 16.7c-2.6 3.2-5 5.9-5.3 6.1-.4.1-1.8-1.2-3.1-3-2.1-3-2.1-3.1-.2-1.4 2.1 1.8 2.2 1.8 6-1.2 2.1-1.7 4.5-3.8 5.2-4.7.7-.8 1.4-1.5 1.6-1.5.2 0-1.7 2.6-4.2 5.7z"/><path d="M222.2 208c-25.9 6.8-42.3 29.2-38.4 52.2 4.9 28.1 34.4 45.9 65.4 39.4 29.1-6.2 46.6-33.8 37.9-59.9-8.2-24.3-37.8-38.8-64.9-31.7zm23.5 34.1c9.4 5.9 8 20.1-2.4 24.4-12.2 5.1-25.4-4.4-22.2-16 2.8-10.1 15.1-14.3 24.6-8.4z"/><path d="M229.9 246.9c-4.5 3.5-4.5 11.4-.1 14.7.9.8 4.1 1.4 7 1.4 4.4 0 5.7-.4 7.9-2.6s2.5-3.2 2-7.1c-.6-5.9-2.4-7.5-8.9-8.1-4.3-.3-5.8 0-7.9 1.7zM451.2 207.5c-35.1 7.7-51.5 43.7-32.4 71.4 10 14.7 28.6 23 48.7 21.8 24.8-1.5 44.5-17.7 48.6-39.9 6-32.6-28.8-61.1-64.9-53.3zm21.3 34.3c3.9 2.4 6.8 7.5 6.8 12.4 0 9.9-12.4 16.7-22.5 12.4-7.6-3.3-11.1-12.3-7.4-19.5 3.8-7.3 15.1-9.9 23.1-5.3z"/><path d="M455.8 244.6c-10.8 5.8-1.6 23.7 10.5 20.3 4.3-1.2 9.7-7 9.7-10.5 0-3.8-2.7-8.2-6-9.9-3.7-1.9-10.7-1.9-14.2.1z"/></svg>